<mxfile host="Electron" modified="2023-04-17T13:19:15.862Z" agent="Mozilla/5.0 (Macintosh; Intel Mac OS X 10_15_7) AppleWebKit/537.36 (KHTML, like Gecko) draw.io/21.1.2 Chrome/106.0.5249.199 Electron/21.4.3 Safari/537.36" etag="7K-fL6Eiz_ggt6x9xbEm" version="21.1.2" type="device">
  <diagram name="Page-1" id="1iqsQDGUu4LenZ0O4uJL">
    <mxGraphModel dx="984" dy="658" grid="1" gridSize="10" guides="1" tooltips="1" connect="1" arrows="1" fold="1" page="1" pageScale="1" pageWidth="827" pageHeight="1169" math="0" shadow="0">
      <root>
        <mxCell id="0" />
        <mxCell id="1" parent="0" />
        <mxCell id="jempu95p1DKAsMCRwqDI-869" value="Action&lt;br&gt;Another action&lt;br&gt;Something else here" style="rounded=0;whiteSpace=wrap;html=1;fontFamily=Architects Daughter;fontSource=https%3A%2F%2Ffonts.googleapis.com%2Fcss%3Ffamily%3DArchitects%2BDaughter;align=left;spacing=8;shadow=0;fontSize=16;strokeColor=#808080;sketch=1;curveFitting=1;jiggle=2;rotatable=0;connectable=0;allowArrows=0;" parent="1" vertex="1">
          <mxGeometry x="40" y="210.25" width="280" height="90" as="geometry" />
        </mxCell>
        <mxCell id="jempu95p1DKAsMCRwqDI-854" value="Input" style="rounded=0;whiteSpace=wrap;html=1;sketch=1;curveFitting=1;jiggle=2;fontFamily=Architects Daughter;fontSource=https%3A%2F%2Ffonts.googleapis.com%2Fcss%3Ffamily%3DArchitects%2BDaughter;align=left;spacing=8;shadow=0;fontSize=16;strokeColor=#808080;rotatable=0;connectable=0;allowArrows=0;" parent="1" vertex="1">
          <mxGeometry x="40" y="80" width="280" height="30" as="geometry" />
        </mxCell>
        <mxCell id="jempu95p1DKAsMCRwqDI-855" value="Label:" style="text;html=1;strokeColor=none;fillColor=none;align=left;verticalAlign=middle;whiteSpace=wrap;rounded=0;shadow=0;sketch=1;curveFitting=1;jiggle=2;fontFamily=Architects Daughter;fontSource=https%3A%2F%2Ffonts.googleapis.com%2Fcss%3Ffamily%3DArchitects%2BDaughter;fontSize=16;spacing=8;rotatable=0;connectable=0;allowArrows=0;" parent="1" vertex="1">
          <mxGeometry x="40" y="50" width="200" height="30" as="geometry" />
        </mxCell>
        <mxCell id="jempu95p1DKAsMCRwqDI-856" value="Button" style="rounded=0;whiteSpace=wrap;html=1;fontFamily=Architects Daughter;fontSource=https%3A%2F%2Ffonts.googleapis.com%2Fcss%3Ffamily%3DArchitects%2BDaughter;align=center;spacing=8;glass=0;shadow=0;fillColor=#29467F;fillStyle=solid;fontColor=#FFFFFF;sketch=1;curveFitting=1;jiggle=2;fontSize=16;rotatable=0;connectable=0;allowArrows=0;" parent="1" vertex="1">
          <mxGeometry x="200" y="130" width="120" height="30" as="geometry" />
        </mxCell>
        <mxCell id="jempu95p1DKAsMCRwqDI-887" value="Cancel" style="rounded=0;whiteSpace=wrap;html=1;fontFamily=Architects Daughter;fontSource=https%3A%2F%2Ffonts.googleapis.com%2Fcss%3Ffamily%3DArchitects%2BDaughter;align=center;spacing=8;glass=0;shadow=0;fillColor=#808080;fillStyle=solid;fontColor=#FFFFFF;sketch=1;curveFitting=1;jiggle=2;fontSize=16;rotatable=0;connectable=0;allowArrows=0;" parent="1" vertex="1">
          <mxGeometry x="40" y="325.95" width="120" height="30" as="geometry" />
        </mxCell>
        <mxCell id="jempu95p1DKAsMCRwqDI-888" value="Delete" style="rounded=0;whiteSpace=wrap;html=1;fontFamily=Architects Daughter;fontSource=https%3A%2F%2Ffonts.googleapis.com%2Fcss%3Ffamily%3DArchitects%2BDaughter;align=center;spacing=8;glass=0;shadow=0;fillColor=#7F2948;fillStyle=solid;fontColor=#FFFFFF;sketch=1;curveFitting=1;jiggle=2;fontSize=16;rotatable=0;connectable=0;allowArrows=0;" parent="1" vertex="1">
          <mxGeometry x="200" y="325.95" width="120" height="30" as="geometry" />
        </mxCell>
        <mxCell id="jempu95p1DKAsMCRwqDI-911" value="" style="rounded=0;whiteSpace=wrap;html=1;sketch=1;curveFitting=1;jiggle=2;strokeColor=default;fillColor=none;connectable=0;allowArrows=0;shadow=0;" parent="1" vertex="1">
          <mxGeometry x="400" y="55" width="20" height="20" as="geometry" />
        </mxCell>
        <mxCell id="jempu95p1DKAsMCRwqDI-912" value="Checkbox" style="text;html=1;strokeColor=none;fillColor=none;align=left;verticalAlign=middle;whiteSpace=wrap;rounded=0;shadow=0;sketch=1;curveFitting=1;jiggle=2;fontFamily=Architects Daughter;fontSource=https%3A%2F%2Ffonts.googleapis.com%2Fcss%3Ffamily%3DArchitects%2BDaughter;fontSize=16;spacing=8;rotatable=0;connectable=0;allowArrows=0;" parent="1" vertex="1">
          <mxGeometry x="430" y="50" width="250" height="30" as="geometry" />
        </mxCell>
        <mxCell id="jempu95p1DKAsMCRwqDI-914" value="Checkbox checked" style="text;html=1;strokeColor=none;fillColor=none;align=left;verticalAlign=middle;whiteSpace=wrap;rounded=0;shadow=0;sketch=1;curveFitting=1;jiggle=2;fontFamily=Architects Daughter;fontSource=https%3A%2F%2Ffonts.googleapis.com%2Fcss%3Ffamily%3DArchitects%2BDaughter;fontSize=16;spacing=8;rotatable=0;connectable=0;allowArrows=0;" parent="1" vertex="1">
          <mxGeometry x="430" y="80" width="250" height="30" as="geometry" />
        </mxCell>
        <mxCell id="jempu95p1DKAsMCRwqDI-916" value="" style="ellipse;whiteSpace=wrap;html=1;aspect=fixed;connectable=0;allowArrows=0;sketch=1;curveFitting=1;jiggle=2;" parent="1" vertex="1">
          <mxGeometry x="400" y="155.25" width="20" height="20" as="geometry" />
        </mxCell>
        <mxCell id="jempu95p1DKAsMCRwqDI-917" value="Radio button" style="text;html=1;strokeColor=none;fillColor=none;align=left;verticalAlign=middle;whiteSpace=wrap;rounded=0;shadow=0;sketch=1;curveFitting=1;jiggle=2;fontFamily=Architects Daughter;fontSource=https%3A%2F%2Ffonts.googleapis.com%2Fcss%3Ffamily%3DArchitects%2BDaughter;fontSize=16;spacing=8;rotatable=0;connectable=0;allowArrows=0;" parent="1" vertex="1">
          <mxGeometry x="430" y="150.25" width="250" height="30" as="geometry" />
        </mxCell>
        <mxCell id="jempu95p1DKAsMCRwqDI-919" value="Radio selected" style="text;html=1;strokeColor=none;fillColor=none;align=left;verticalAlign=middle;whiteSpace=wrap;rounded=0;shadow=0;sketch=1;curveFitting=1;jiggle=2;fontFamily=Architects Daughter;fontSource=https%3A%2F%2Ffonts.googleapis.com%2Fcss%3Ffamily%3DArchitects%2BDaughter;fontSize=16;spacing=8;rotatable=0;connectable=0;allowArrows=0;" parent="1" vertex="1">
          <mxGeometry x="430" y="180.25" width="250" height="30" as="geometry" />
        </mxCell>
        <mxCell id="jempu95p1DKAsMCRwqDI-921" value="Password:" style="text;html=1;strokeColor=none;fillColor=none;align=left;verticalAlign=middle;whiteSpace=wrap;rounded=0;shadow=0;sketch=1;curveFitting=1;jiggle=2;fontFamily=Architects Daughter;fontSource=https%3A%2F%2Ffonts.googleapis.com%2Fcss%3Ffamily%3DArchitects%2BDaughter;fontSize=16;spacing=8;rotatable=0;connectable=0;allowArrows=0;" parent="1" vertex="1">
          <mxGeometry x="400" y="250" width="200" height="30" as="geometry" />
        </mxCell>
        <mxCell id="jempu95p1DKAsMCRwqDI-922" value="**********" style="rounded=0;whiteSpace=wrap;html=1;sketch=1;curveFitting=1;jiggle=2;fontFamily=Architects Daughter;fontSource=https%3A%2F%2Ffonts.googleapis.com%2Fcss%3Ffamily%3DArchitects%2BDaughter;align=left;spacing=8;shadow=0;fontSize=16;strokeColor=#808080;rotatable=0;connectable=0;allowArrows=0;" parent="1" vertex="1">
          <mxGeometry x="400" y="280" width="280" height="30" as="geometry" />
        </mxCell>
        <mxCell id="jempu95p1DKAsMCRwqDI-930" value="Navigation" style="rounded=0;whiteSpace=wrap;html=1;sketch=1;curveFitting=1;jiggle=2;fontFamily=Architects Daughter;fontSource=https%3A%2F%2Ffonts.googleapis.com%2Fcss%3Ffamily%3DArchitects%2BDaughter;align=left;spacing=8;shadow=0;fontSize=16;strokeColor=#808080;rotatable=0;connectable=0;allowArrows=0;" parent="1" vertex="1">
          <mxGeometry x="40" y="560" width="640" height="40" as="geometry" />
        </mxCell>
        <mxCell id="jempu95p1DKAsMCRwqDI-931" value="File" style="rounded=0;whiteSpace=wrap;html=1;fontFamily=Architects Daughter;fontSource=https%3A%2F%2Ffonts.googleapis.com%2Fcss%3Ffamily%3DArchitects%2BDaughter;align=left;spacing=8;glass=0;shadow=0;fillColor=none;fillStyle=solid;fontColor=#29467F;sketch=1;curveFitting=1;jiggle=2;fontSize=16;rotatable=0;connectable=0;allowArrows=0;strokeColor=none;" parent="1" vertex="1">
          <mxGeometry x="140" y="565" width="80" height="30" as="geometry" />
        </mxCell>
        <mxCell id="jempu95p1DKAsMCRwqDI-932" value="Edit" style="rounded=0;whiteSpace=wrap;html=1;fontFamily=Architects Daughter;fontSource=https%3A%2F%2Ffonts.googleapis.com%2Fcss%3Ffamily%3DArchitects%2BDaughter;align=left;spacing=8;glass=0;shadow=0;fillColor=none;fillStyle=solid;fontColor=#29467F;sketch=1;curveFitting=1;jiggle=2;fontSize=16;rotatable=0;connectable=0;allowArrows=0;strokeColor=none;" parent="1" vertex="1">
          <mxGeometry x="220" y="565" width="80" height="30" as="geometry" />
        </mxCell>
        <mxCell id="jempu95p1DKAsMCRwqDI-933" value="View" style="rounded=0;whiteSpace=wrap;html=1;fontFamily=Architects Daughter;fontSource=https%3A%2F%2Ffonts.googleapis.com%2Fcss%3Ffamily%3DArchitects%2BDaughter;align=left;spacing=8;glass=0;shadow=0;fillColor=none;fillStyle=solid;fontColor=#29467F;sketch=1;curveFitting=1;jiggle=2;fontSize=16;rotatable=0;connectable=0;allowArrows=0;strokeColor=none;" parent="1" vertex="1">
          <mxGeometry x="300" y="565" width="80" height="30" as="geometry" />
        </mxCell>
        <mxCell id="jempu95p1DKAsMCRwqDI-935" value="Search:" style="text;html=1;strokeColor=none;fillColor=none;align=left;verticalAlign=middle;whiteSpace=wrap;rounded=0;shadow=0;sketch=1;curveFitting=1;jiggle=2;fontFamily=Architects Daughter;fontSource=https%3A%2F%2Ffonts.googleapis.com%2Fcss%3Ffamily%3DArchitects%2BDaughter;fontSize=16;spacing=8;rotatable=0;connectable=0;allowArrows=0;" parent="1" vertex="1">
          <mxGeometry x="400" y="320" width="200" height="30" as="geometry" />
        </mxCell>
        <mxCell id="jempu95p1DKAsMCRwqDI-982" value="" style="group" parent="1" vertex="1" connectable="0">
          <mxGeometry x="40" y="180.25" width="280" height="30" as="geometry" />
        </mxCell>
        <mxCell id="jempu95p1DKAsMCRwqDI-862" value="Dropdown" style="rounded=0;whiteSpace=wrap;html=1;sketch=1;curveFitting=1;jiggle=2;fontFamily=Architects Daughter;fontSource=https%3A%2F%2Ffonts.googleapis.com%2Fcss%3Ffamily%3DArchitects%2BDaughter;align=left;spacing=8;shadow=0;fontSize=16;strokeColor=#808080;rotatable=0;connectable=0;allowArrows=0;" parent="jempu95p1DKAsMCRwqDI-982" vertex="1">
          <mxGeometry width="280" height="30" as="geometry" />
        </mxCell>
        <mxCell id="jempu95p1DKAsMCRwqDI-886" value="" style="triangle;whiteSpace=wrap;html=1;rotation=90;fillColor=#808080;strokeColor=none;connectable=0;allowArrows=0;resizable=0;rotatable=0;shadow=0;" parent="jempu95p1DKAsMCRwqDI-982" vertex="1">
          <mxGeometry x="255" y="5" width="10" height="20" as="geometry" />
        </mxCell>
        <mxCell id="jempu95p1DKAsMCRwqDI-983" value="" style="group" parent="1" vertex="1" connectable="0">
          <mxGeometry x="40" y="400" width="280" height="120" as="geometry" />
        </mxCell>
        <mxCell id="jempu95p1DKAsMCRwqDI-905" value="Text area" style="rounded=0;whiteSpace=wrap;html=1;sketch=1;curveFitting=1;jiggle=2;fontFamily=Architects Daughter;fontSource=https%3A%2F%2Ffonts.googleapis.com%2Fcss%3Ffamily%3DArchitects%2BDaughter;align=left;spacing=8;shadow=0;fontSize=16;strokeColor=#808080;rotatable=0;connectable=0;allowArrows=0;verticalAlign=top;" parent="jempu95p1DKAsMCRwqDI-983" vertex="1">
          <mxGeometry width="280" height="120" as="geometry" />
        </mxCell>
        <mxCell id="jempu95p1DKAsMCRwqDI-906" value="" style="triangle;whiteSpace=wrap;html=1;rotation=90;fillColor=#808080;strokeColor=none;connectable=0;allowArrows=0;resizable=0;rotatable=0;shadow=0;" parent="jempu95p1DKAsMCRwqDI-983" vertex="1">
          <mxGeometry x="260" y="100" width="10" height="20" as="geometry" />
        </mxCell>
        <mxCell id="jempu95p1DKAsMCRwqDI-907" value="" style="triangle;whiteSpace=wrap;html=1;rotation=270;fillColor=#B2B2B2;strokeColor=none;connectable=0;allowArrows=0;resizable=0;rotatable=0;shadow=0;" parent="jempu95p1DKAsMCRwqDI-983" vertex="1">
          <mxGeometry x="260" width="10" height="20" as="geometry" />
        </mxCell>
        <mxCell id="jempu95p1DKAsMCRwqDI-908" value="" style="rounded=0;whiteSpace=wrap;html=1;sketch=1;curveFitting=1;jiggle=2;strokeColor=none;fillColor=#7F2948;connectable=0;allowArrows=0;shadow=0;" parent="jempu95p1DKAsMCRwqDI-983" vertex="1">
          <mxGeometry x="255" y="20" width="20" height="40" as="geometry" />
        </mxCell>
        <mxCell id="jempu95p1DKAsMCRwqDI-984" value="" style="group" parent="1" vertex="1" connectable="0">
          <mxGeometry x="400" y="84.75" width="20" height="20.5" as="geometry" />
        </mxCell>
        <mxCell id="jempu95p1DKAsMCRwqDI-913" value="" style="rounded=0;whiteSpace=wrap;html=1;sketch=1;curveFitting=1;jiggle=2;strokeColor=default;fillColor=#808080;connectable=0;allowArrows=0;shadow=0;" parent="jempu95p1DKAsMCRwqDI-984" vertex="1">
          <mxGeometry y="0.25" width="20" height="20" as="geometry" />
        </mxCell>
        <mxCell id="jempu95p1DKAsMCRwqDI-915" value="✓" style="text;strokeColor=none;fillColor=none;align=center;verticalAlign=middle;rounded=0;shadow=0;sketch=1;curveFitting=1;jiggle=2;fontFamily=Architects Daughter;fontSource=https%3A%2F%2Ffonts.googleapis.com%2Fcss%3Ffamily%3DArchitects%2BDaughter;fontSize=16;spacing=0;rotatable=0;connectable=0;allowArrows=0;" parent="jempu95p1DKAsMCRwqDI-984" vertex="1">
          <mxGeometry width="20" height="20.5" as="geometry" />
        </mxCell>
        <mxCell id="jempu95p1DKAsMCRwqDI-985" value="" style="group" parent="1" vertex="1" connectable="0">
          <mxGeometry x="400" y="185.25" width="20" height="20" as="geometry" />
        </mxCell>
        <mxCell id="jempu95p1DKAsMCRwqDI-918" value="" style="ellipse;whiteSpace=wrap;html=1;aspect=fixed;connectable=0;allowArrows=0;sketch=1;curveFitting=1;jiggle=2;fillColor=#808080;" parent="jempu95p1DKAsMCRwqDI-985" vertex="1">
          <mxGeometry width="20" height="20" as="geometry" />
        </mxCell>
        <mxCell id="jempu95p1DKAsMCRwqDI-920" value="" style="ellipse;whiteSpace=wrap;html=1;aspect=fixed;connectable=0;allowArrows=0;fillColor=#000000;strokeColor=none;" parent="jempu95p1DKAsMCRwqDI-985" vertex="1">
          <mxGeometry x="5" y="4.75" width="10" height="10" as="geometry" />
        </mxCell>
        <mxCell id="jempu95p1DKAsMCRwqDI-986" value="" style="group" parent="1" vertex="1" connectable="0">
          <mxGeometry x="400" y="350" width="280" height="30" as="geometry" />
        </mxCell>
        <mxCell id="jempu95p1DKAsMCRwqDI-934" value="" style="rounded=0;whiteSpace=wrap;html=1;sketch=1;curveFitting=1;jiggle=2;fontFamily=Architects Daughter;fontSource=https%3A%2F%2Ffonts.googleapis.com%2Fcss%3Ffamily%3DArchitects%2BDaughter;align=left;spacing=8;shadow=0;fontSize=16;strokeColor=#808080;rotatable=0;connectable=0;allowArrows=0;" parent="jempu95p1DKAsMCRwqDI-986" vertex="1">
          <mxGeometry width="280" height="30" as="geometry" />
        </mxCell>
        <mxCell id="jempu95p1DKAsMCRwqDI-943" value="" style="group" parent="jempu95p1DKAsMCRwqDI-986" vertex="1" connectable="0">
          <mxGeometry x="260" y="5.949999999999989" width="17.59619407771254" height="18.09619407771254" as="geometry" />
        </mxCell>
        <mxCell id="jempu95p1DKAsMCRwqDI-941" value="" style="endArrow=none;html=1;rounded=0;bendable=0;anchorPointDirection=0;strokeWidth=2;strokeColor=#808080;" parent="jempu95p1DKAsMCRwqDI-943" edge="1">
          <mxGeometry width="50" height="50" relative="1" as="geometry">
            <mxPoint x="5" y="5" as="sourcePoint" />
            <mxPoint x="15" y="15" as="targetPoint" />
          </mxGeometry>
        </mxCell>
        <mxCell id="jempu95p1DKAsMCRwqDI-937" value="" style="ellipse;whiteSpace=wrap;html=1;aspect=fixed;shadow=0;connectable=0;allowArrows=0;container=0;strokeColor=#808080;" parent="jempu95p1DKAsMCRwqDI-943" vertex="1">
          <mxGeometry width="10" height="10" as="geometry" />
        </mxCell>
        <mxCell id="jempu95p1DKAsMCRwqDI-938" value="" style="rounded=1;whiteSpace=wrap;html=1;rotation=45;connectable=0;allowArrows=0;container=0;strokeColor=#808080;" parent="jempu95p1DKAsMCRwqDI-943" vertex="1">
          <mxGeometry x="9" y="11" width="8" height="5" as="geometry" />
        </mxCell>
        <mxCell id="jempu95p1DKAsMCRwqDI-987" value="" style="group" parent="1" vertex="1" connectable="0">
          <mxGeometry x="50" y="640" width="250" height="30" as="geometry" />
        </mxCell>
        <mxCell id="jempu95p1DKAsMCRwqDI-969" value="Previous" style="rounded=0;whiteSpace=wrap;html=1;sketch=1;curveFitting=1;jiggle=2;fontFamily=Architects Daughter;fontSource=https%3A%2F%2Ffonts.googleapis.com%2Fcss%3Ffamily%3DArchitects%2BDaughter;align=left;spacing=8;shadow=0;fontSize=16;strokeColor=#808080;rotatable=0;connectable=0;allowArrows=0;" parent="jempu95p1DKAsMCRwqDI-987" vertex="1">
          <mxGeometry width="250" height="30" as="geometry" />
        </mxCell>
        <mxCell id="jempu95p1DKAsMCRwqDI-971" value="Next" style="text;html=1;strokeColor=none;fillColor=none;align=center;verticalAlign=middle;whiteSpace=wrap;rounded=0;shadow=0;sketch=1;curveFitting=1;jiggle=2;fontFamily=Architects Daughter;fontSource=https%3A%2F%2Ffonts.googleapis.com%2Fcss%3Ffamily%3DArchitects%2BDaughter;fontSize=16;spacing=8;rotatable=0;connectable=0;allowArrows=0;" parent="jempu95p1DKAsMCRwqDI-987" vertex="1">
          <mxGeometry x="170" width="80" height="30" as="geometry" />
        </mxCell>
        <mxCell id="jempu95p1DKAsMCRwqDI-972" value="1" style="text;html=1;strokeColor=none;fillColor=none;align=center;verticalAlign=middle;whiteSpace=wrap;rounded=0;shadow=0;sketch=1;curveFitting=1;jiggle=2;fontFamily=Architects Daughter;fontSource=https%3A%2F%2Ffonts.googleapis.com%2Fcss%3Ffamily%3DArchitects%2BDaughter;fontSize=16;spacing=8;rotatable=0;connectable=0;allowArrows=0;" parent="jempu95p1DKAsMCRwqDI-987" vertex="1">
          <mxGeometry x="80" width="30" height="30" as="geometry" />
        </mxCell>
        <mxCell id="jempu95p1DKAsMCRwqDI-973" value="2" style="text;html=1;strokeColor=none;fillColor=none;align=center;verticalAlign=middle;whiteSpace=wrap;rounded=0;shadow=0;sketch=1;curveFitting=1;jiggle=2;fontFamily=Architects Daughter;fontSource=https%3A%2F%2Ffonts.googleapis.com%2Fcss%3Ffamily%3DArchitects%2BDaughter;fontSize=16;spacing=8;rotatable=0;connectable=0;allowArrows=0;" parent="jempu95p1DKAsMCRwqDI-987" vertex="1">
          <mxGeometry x="110" width="30" height="30" as="geometry" />
        </mxCell>
        <mxCell id="jempu95p1DKAsMCRwqDI-974" value="3" style="text;html=1;strokeColor=none;fillColor=none;align=center;verticalAlign=middle;whiteSpace=wrap;rounded=0;shadow=0;sketch=1;curveFitting=1;jiggle=2;fontFamily=Architects Daughter;fontSource=https%3A%2F%2Ffonts.googleapis.com%2Fcss%3Ffamily%3DArchitects%2BDaughter;fontSize=16;spacing=8;rotatable=0;connectable=0;allowArrows=0;" parent="jempu95p1DKAsMCRwqDI-987" vertex="1">
          <mxGeometry x="140" width="30" height="30" as="geometry" />
        </mxCell>
        <mxCell id="jempu95p1DKAsMCRwqDI-975" value="" style="endArrow=none;html=1;rounded=0;strokeColor=#808080;bendable=0;sketch=1;curveFitting=1;jiggle=2;" parent="jempu95p1DKAsMCRwqDI-987" edge="1">
          <mxGeometry width="50" height="50" relative="1" as="geometry">
            <mxPoint x="79.51999999999998" y="30" as="sourcePoint" />
            <mxPoint x="79.51999999999998" y="2" as="targetPoint" />
          </mxGeometry>
        </mxCell>
        <mxCell id="jempu95p1DKAsMCRwqDI-976" value="" style="endArrow=none;html=1;rounded=0;strokeColor=#808080;bendable=0;sketch=1;curveFitting=1;jiggle=2;" parent="jempu95p1DKAsMCRwqDI-987" edge="1">
          <mxGeometry width="50" height="50" relative="1" as="geometry">
            <mxPoint x="109.51999999999998" y="30" as="sourcePoint" />
            <mxPoint x="109.51999999999998" y="2" as="targetPoint" />
          </mxGeometry>
        </mxCell>
        <mxCell id="jempu95p1DKAsMCRwqDI-977" value="" style="endArrow=none;html=1;rounded=0;strokeColor=#808080;bendable=0;sketch=1;curveFitting=1;jiggle=2;" parent="jempu95p1DKAsMCRwqDI-987" edge="1">
          <mxGeometry width="50" height="50" relative="1" as="geometry">
            <mxPoint x="139.51999999999998" y="30" as="sourcePoint" />
            <mxPoint x="139.51999999999998" y="2" as="targetPoint" />
          </mxGeometry>
        </mxCell>
        <mxCell id="jempu95p1DKAsMCRwqDI-978" value="" style="endArrow=none;html=1;rounded=0;strokeColor=#808080;bendable=0;sketch=1;curveFitting=1;jiggle=2;" parent="jempu95p1DKAsMCRwqDI-987" edge="1">
          <mxGeometry width="50" height="50" relative="1" as="geometry">
            <mxPoint x="169.51999999999998" y="30" as="sourcePoint" />
            <mxPoint x="169.51999999999998" y="2" as="targetPoint" />
          </mxGeometry>
        </mxCell>
      </root>
    </mxGraphModel>
  </diagram>
</mxfile>
